<svg xmlns="http://www.w3.org/2000/svg" xmlns:xlink="http://www.w3.org/1999/xlink" aria-hidden="true" role="img" class="iconify iconify--logos" width="35.93" height="32" preserveAspectRatio="xMidYMid meet" viewBox="0 0 256 228"><path fill="#00D8FF" d="M210.483 73.824a171.49 171.49 0 0 0-8.24-2.597c.465-1.9.893-3.777 1.273-5.621c6.238-30.281 2.16-54.676-11.769-62.708c-13.355-7.7-35.196.329-57.254 19.526a171.23 171.23 0 0 0-6.375 5.848a155.866 155.866 0 0 0-4.241-3.917C100.759 3.829 77.587-4.822 63.673 3.233C50.33 10.957 46.379 33.89 51.995 62.588a170.974 170.974 0 0 0 1.892 8.48c-3.28.932-6.445 1.924-9.474 2.98C17.309 83.498 0 98.307 0 113.668c0 15.865 18.582 31.778 46.812 41.427a145.52 145.52 0 0 0 6.921 2.165a167.467 167.467 0 0 0-2.01 9.138c-5.354 28.2-1.173 50.591 12.134 58.266c13.744 7.926 36.812-.22 59.273-19.855a145.567 145.567 0 0 0 5.342-4.923a168.064 168.064 0 0 0 6.92 6.314c21.758 18.722 43.246 26.282 56.54 18.586c13.731-7.949 18.194-32.003 12.4-61.268a145.016 145.016 0 0 0-1.535-6.842c1.62-.48 3.21-.974 4.76-1.488c29.348-9.723 48.443-25.443 48.443-41.52c0-15.417-17.868-30.326-45.517-39.844Zm-6.365 70.984c-1.596.54-3.233 1.056-4.902 1.556a167.699 167.699 0 0 0-3.85-10.806c1.405-3.832 2.656-7.69 3.74-11.569c3.067 1.03 5.998 2.12 8.77 3.27c10.37 4.343 17.812 9.723 22.003 15.23c-8.467 4.08-18.895 7.62-25.76 2.32ZM128 192.776c-7.42 0-14.855-2.14-22.23-6.393c2.353-3.2 4.84-6.524 7.553-9.948c5.585.623 11.184.942 16.677.942c5.554 0 11.22-.328 16.86-.97c2.621 3.372 5.095 6.653 7.462 9.873C146.964 190.605 137.533 192.776 128 192.776Zm-22.22-33.115c-5.614-11.16-10.744-22.806-15.234-34.814c4.49-12.007 9.62-23.654 15.234-34.814c5.614 11.16 10.741 22.804 15.231 34.814c-4.49 12.01-9.617 23.654-15.231 34.814Zm15.231-34.814c4.49-12.007 9.617-23.654 15.231-34.814c5.614 11.16 10.744 22.806 15.234 34.814c-4.49 12.008-9.62 23.654-15.234 34.814c-5.614-11.16-10.741-22.806-15.231-34.814Zm-71.512-74.77c-8.427-8.427-12.27-16.608-11.256-22.706c1.03-6.296 7.59-12.097 18.895-16.426c4.46-1.668 9.34-3.094 14.584-4.264c1.952 4.847 4.12 9.89 6.513 15.126c-2.394 5.237-4.562 10.28-6.514 15.127c-5.245-1.17-10.123-2.596-14.584-4.263c-11.305-4.33-17.865-10.13-18.895-16.426c-1.014-6.098 2.829-14.278 11.256-22.706ZM128 35.224c7.42 0 14.855 2.14 22.23 6.393c-2.353 3.2-4.84 6.524-7.553 9.948c-5.585-.623-11.184-.942-16.677-.942c-5.554 0-11.22.328-16.86.97c-2.621-3.372-5.095-6.653-7.462-9.873C109.036 37.395 118.467 35.224 128 35.224Zm93.936 35.575c10.386 4.334 16.952 10.14 17.974 16.434c1.022 6.298-2.83 14.486-11.268 22.913a145.026 145.026 0 0 0-3.739-1.327c1.955-4.861 3.73-9.836 5.311-14.906c-1.58-5.07-3.356-10.045-5.311-14.906a143.975 143.975 0 0 0 3.739-1.327c8.438 8.427 12.29 16.615 11.268 22.913c-1.022 6.294-7.588 12.1-17.974 16.434Zm-19.116-43.7c25.167 14.54 31.512 44.498 16.972 69.665a145.47 145.47 0 0 0-4.85-2.11c3.23-9.45 5.553-18.903 6.94-28.208C218.835 56.6 214.44 47.003 206.12 40.7a145.66 145.66 0 0 0-4.85-2.11C205.697 30.78 209.22 20.558 206.12 13.099ZM49.88 13.099c-3.1 7.459.477 17.681 4.85 25.491a145.66 145.66 0 0 0-4.85 2.11C41.56 47.003 37.165 56.6 34.052 66.556c1.387 9.305 3.71 18.758 6.94 28.208a145.47 145.47 0 0 0-4.85 2.11C21.602 71.707 27.947 41.749 53.114 27.21L49.88 13.099ZM128 224.776c-96.975 0-129.543-34.3-129.543-111.108C-1.543 36.96 31.025 2.66 128 2.66c96.975 0 129.543 34.3 129.543 111.008C257.543 190.476 224.975 224.776 128 224.776Z"></path></svg>
